<svg id="Capa_1" enable-background="new 0 0 496 496" height="512" viewBox="0 0 496 496" width="512" xmlns="http://www.w3.org/2000/svg"><g><path d="m248 0c-136.967 0-248 111.033-248 248s111.033 248 248 248 248-111.033 248-248-111.033-248-248-248zm0 464c-119.294 0-216-96.706-216-216s96.706-216 216-216 216 96.706 216 216-96.706 216-216 216z"/><path d="m368 232h-104v-104c0-8.837-7.163-16-16-16s-16 7.163-16 16v104h-104c-8.837 0-16 7.163-16 16s7.163 16 16 16h104v104c0 8.837 7.163 16 16 16s16-7.163 16-16v-104h104c8.837 0 16-7.163 16-16s-7.163-16-16-16z"/></g></svg>