<?xml version="1.0" encoding="iso-8859-1"?>
<!-- Generator: Adobe Illustrator 19.0.0, SVG Export Plug-In . SVG Version: 6.00 Build 0)  -->
<svg version="1.1" id="Capa_1" xmlns="http://www.w3.org/2000/svg" xmlns:xlink="http://www.w3.org/1999/xlink" x="0px" y="0px"
	 viewBox="0 0 512 512" style="enable-background:new 0 0 512 512;" xml:space="preserve">
<g>
	<g>
		<path d="M501.056,107.057c-6.997-16.725-17.045-31.723-29.781-44.608c-12.8-12.885-27.669-23.019-44.224-30.101
			c-29.76-12.672-63.765-14.464-94.656-5.013c-12.672,3.883-24.683,9.579-35.755,16.896c-10.859,7.189-20.693,15.915-29.269,25.984
			c-4.139,4.885-7.936,10.027-11.371,15.381c-3.435-5.355-7.232-10.496-11.371-15.381c-8.533-10.005-18.389-18.731-29.269-25.941
			c-11.072-7.36-23.083-13.035-35.755-16.917c-30.891-9.472-64.896-7.68-94.656,5.013c-16.555,7.061-31.424,17.195-44.203,30.08
			c-12.757,12.885-22.805,27.883-29.803,44.608C3.691,124.315,0,142.683,0,162.246c0.107,26.261,9.579,52.779,28.011,77.355
			l220.011,247.467c2.048,2.283,4.928,3.584,7.979,3.584s5.931-1.301,7.979-3.584l220.587-248.149
			c17.856-23.893,27.328-50.389,27.435-77.248C512,142.683,508.309,124.315,501.056,107.057z M468.032,225.435L256,463.942
			L44.523,226.139c-10.517-14.08-23.083-36.608-23.189-64.469c0-16.128,3.115-31.701,9.28-46.357
			c5.952-14.187,14.443-26.923,25.28-37.845c10.837-10.923,23.445-19.499,37.44-25.472c14.507-6.208,29.909-9.344,45.824-9.344
			c11.669,0,23.168,1.728,34.197,5.099c10.688,3.285,20.864,8.085,30.208,14.293c9.237,6.123,17.579,13.525,24.811,22.016
			c7.296,8.555,13.312,18.048,17.92,28.203c3.413,7.637,16,7.637,19.413,0c4.608-10.155,10.624-19.648,17.92-28.203
			c7.275-8.533,15.595-15.936,24.811-22.037c9.344-6.208,19.52-11.008,30.208-14.293c26.069-7.979,54.891-6.507,80.021,4.245
			c13.995,5.973,26.603,14.549,37.461,25.493c10.816,10.923,19.307,23.637,25.28,37.845c6.144,14.656,9.259,30.229,9.259,46.848
			C490.56,189.531,477.995,212.059,468.032,225.435z"/>
	</g>
</g>
<g>
</g>
<g>
</g>
<g>
</g>
<g>
</g>
<g>
</g>
<g>
</g>
<g>
</g>
<g>
</g>
<g>
</g>
<g>
</g>
<g>
</g>
<g>
</g>
<g>
</g>
<g>
</g>
<g>
</g>
</svg>
