<?xml version="1.0" encoding="iso-8859-1"?>
<!-- Generator: Adobe Illustrator 21.0.0, SVG Export Plug-In . SVG Version: 6.00 Build 0)  -->
<svg xmlns="http://www.w3.org/2000/svg" xmlns:xlink="http://www.w3.org/1999/xlink" version="1.1" id="Capa_1" x="0px" y="0px" viewBox="0 0 512 512" style="enable-background:new 0 0 512 512;" xml:space="preserve" width="512" height="512">
<g>
	<path d="M356.111,160h-51.349v-57.001h-34.336V59.906c0-16.402,13.345-29.746,29.747-29.746s29.747,13.344,29.747,29.746V83.54   c0,32.944,26.802,59.747,59.746,59.747h0.506c32.944,0,59.747-26.803,59.747-59.747V0h-30v83.54   c0,16.402-13.345,29.747-29.747,29.747h-0.506c-16.402,0-29.746-13.345-29.746-29.747V59.906c0-32.944-26.803-59.746-59.747-59.746   s-59.747,26.802-59.747,59.746v43.093h-33.189L208.766,160h-52.878C69.931,160,0,229.932,0,315.889v94.944   C0,466.617,45.383,512,101.167,512s101.167-45.383,101.167-101.167v-11.315h107.331v11.315   c0,55.784,45.384,101.167,101.168,101.167C466.616,512,512,466.617,512,410.833v-94.944C512,229.932,442.068,160,356.111,160z    M237.237,132.999h37.525V160h-35.191L237.237,132.999z M482,410.833C482,450.074,450.074,482,410.832,482   c-39.241,0-71.167-31.926-71.167-71.167v-41.315H172.334v41.315c0,39.241-31.925,71.167-71.167,71.167S30,450.074,30,410.833   v-94.944C30,246.474,86.473,190,155.888,190h53.683h95.191h51.349C425.526,190,482,246.474,482,315.889V410.833z"/>
	<path d="M126.683,236.7c-32.963,0-59.78,26.817-59.78,59.78s26.817,59.78,59.78,59.78s59.78-26.817,59.78-59.78   S159.646,236.7,126.683,236.7z M126.683,326.261c-16.421,0-29.78-13.359-29.78-29.78s13.359-29.78,29.78-29.78   s29.78,13.359,29.78,29.78S143.104,326.261,126.683,326.261z"/>
	<path d="M335.897,270.854c-12.318,0-22.34,10.021-22.34,22.34s10.021,22.34,22.34,22.34s22.34-10.021,22.34-22.34   S348.216,270.854,335.897,270.854z"/>
	<path d="M422.886,270.854c-12.318,0-22.34,10.021-22.34,22.34s10.021,22.34,22.34,22.34s22.34-10.021,22.34-22.34   S435.204,270.854,422.886,270.854z"/>
	<path d="M379.392,272.04c12.318,0,22.34-10.021,22.34-22.34s-10.021-22.34-22.34-22.34s-22.34,10.021-22.34,22.34   S367.073,272.04,379.392,272.04z"/>
	<path d="M379.392,314.349c-12.318,0-22.34,10.021-22.34,22.34s10.021,22.34,22.34,22.34s22.34-10.021,22.34-22.34   S391.71,314.349,379.392,314.349z"/>
</g>















</svg>
