<?xml version="1.0" encoding="iso-8859-1"?>
<!-- Generator: Adobe Illustrator 19.0.0, SVG Export Plug-In . SVG Version: 6.00 Build 0)  -->
<svg version="1.1" id="Capa_1" xmlns="http://www.w3.org/2000/svg" xmlns:xlink="http://www.w3.org/1999/xlink" x="0px" y="0px"
	 viewBox="0 0 512.001 512.001" style="enable-background:new 0 0 512.001 512.001;" xml:space="preserve">
<g>
	<g>
		<path d="M468.149,112.68c-2.389-3.53-6.168-5.877-10.392-6.454c-4.229-0.577-8.494,0.671-11.742,3.43L299.412,234.208
			c-4.133,3.512-6.049,8.98-5.011,14.303s4.868,9.671,10.018,11.372l182.674,60.341c1.534,0.507,3.122,0.757,4.704,0.757
			c2.599,0,5.181-0.675,7.479-1.997c3.699-2.128,6.317-5.731,7.198-9.907c3.668-17.385,5.527-35.243,5.527-53.077
			C512.001,204.628,496.837,155.069,468.149,112.68z M479.98,286.279l-140.785-46.504l113.013-96.015
			c19.538,34.064,29.793,72.535,29.793,112.24C482.001,266.126,481.324,276.257,479.98,286.279z"/>
	</g>
</g>
<g>
	<g>
		<path d="M431.682,69.811C383.989,24.793,321.597,0,256.001,0c-41.577,0-82.882,10.215-119.45,29.542
			c-3.77,1.992-6.513,5.494-7.545,9.63s-0.256,8.516,2.136,12.045l117.804,173.869c2.391,3.528,6.169,5.873,10.392,6.448
			c0.676,0.092,1.353,0.138,2.026,0.138c3.536,0,6.984-1.251,9.712-3.568L431.098,92.15c3.25-2.761,5.172-6.775,5.283-11.039
			C436.492,76.847,434.783,72.738,431.682,69.811z M264.399,194.41L165.726,48.778C194.044,36.457,224.933,30,256.001,30
			c52.271,0,102.237,17.834,142.436,50.533L264.399,194.41z"/>
	</g>
</g>
<g>
	<g>
		<path d="M488.882,350.197c-1.758-3.94-5.126-6.931-9.244-8.211l-207.731-64.575c-11.21-3.485-21.038-10.738-27.674-20.423h0.001
			L112.081,64.09c-2.404-3.509-6.185-5.832-10.4-6.392c-4.215-0.561-8.472,0.696-11.708,3.457
			C33.164,109.604,0.372,180.152,0.004,254.71c-0.34,68.781,26.025,133.383,74.238,181.906
			C122.446,485.128,186.861,511.9,255.622,512c0.128,0,0.249,0.001,0.378,0.001c49.908-0.001,98.273-14.371,139.878-41.566
			c40.627-26.556,72.766-63.858,92.942-107.874C490.617,358.64,490.639,354.136,488.882,350.197z M255.993,482
			c-0.107,0-0.219,0-0.327,0c-60.728-0.088-117.601-23.715-160.142-66.529c-42.552-42.824-65.82-99.864-65.52-160.612
			C30.301,194.64,54.566,137.38,97.105,95.31l122.379,178.633c0.001,0,0.001,0,0.001,0c10.435,15.229,25.889,26.635,43.517,32.114
			l190.81,59.314C414.244,436.769,338.389,482,255.993,482z"/>
	</g>
</g>
<g>
</g>
<g>
</g>
<g>
</g>
<g>
</g>
<g>
</g>
<g>
</g>
<g>
</g>
<g>
</g>
<g>
</g>
<g>
</g>
<g>
</g>
<g>
</g>
<g>
</g>
<g>
</g>
<g>
</g>
</svg>
