<svg id="Icons" height="512" viewBox="0 0 60 60" width="512" xmlns="http://www.w3.org/2000/svg"><path d="m48.5 47.093-1.788-1.788a13.524 13.524 0 0 1 -1.406 1.406l1.785 1.789z"/><path d="m57.552 57.3a2.115 2.115 0 0 0 -.217-2.824l-6.7-6.682-2.841 2.829 6.806 6.79a2.071 2.071 0 0 0 2.952-.113z"/><path d="m48 36.5a11.5 11.5 0 1 0 -11.5 11.5 11.513 11.513 0 0 0 11.5-11.5zm-5.166-4.948-7.286 11a1 1 0 0 1 -.748.448c-.027 0-.055 0-.082 0a1 1 0 0 1 -.733-.319l-3.713-4a1 1 0 0 1 1.464-1.362l2.85 3.07 6.584-9.941a1 1 0 1 1 1.668 1.1z"/><path d="m30 9a2 2 0 0 0 -2-2h-2a1 1 0 0 1 -1-1 4 4 0 0 0 -8 0 1 1 0 0 1 -1 1h-2a2 2 0 0 0 -2 2v2h18zm-8-3a1 1 0 0 1 -2 0v-1a1 1 0 0 1 2 0z"/><path d="m40 49.524a13.391 13.391 0 0 1 -13.975-4.524h-9.025a1 1 0 0 1 0-2h7.674a13.415 13.415 0 0 1 -1.649-6h-6.025a1 1 0 0 1 0-2h6.088a13.6 13.6 0 0 1 .388-2h-6.476a1 1 0 0 1 0-2h7.183a13.417 13.417 0 0 1 15.817-7.524v-10.476a3 3 0 0 0 -3-3h-5v1a2 2 0 0 1 -2 2h-18a2 2 0 0 1 -2-2v-1h-5a3 3 0 0 0 -3 3v40a3 3 0 0 0 3 3h32a3 3 0 0 0 3-3zm-23-30.524h18a1 1 0 0 1 0 2h-18a1 1 0 0 1 0-2zm0 4h8a1 1 0 0 1 0 2h-8a1 1 0 0 1 0-2zm-4 25a2 2 0 0 1 -2 2h-4a2 2 0 0 1 -2-2v-4a2 2 0 0 1 2-2h4a2 2 0 0 1 2 2zm0-12a2 2 0 0 1 -2 2h-4a2 2 0 0 1 -2-2v-4a2 2 0 0 1 2-2h4a2 2 0 0 1 2 2zm0-12a2 2 0 0 1 -2 2h-4a2 2 0 0 1 -2-2v-4a2 2 0 0 1 2-2h4a2 2 0 0 1 2 2zm12 25h-8a1 1 0 0 1 0-2h8a1 1 0 0 1 0 2z"/><path d="m7 20h4.001v4h-4.001z"/><path d="m7 32h4.001v4h-4.001z"/><path d="m7 44h4.001v4h-4.001z"/></svg>