<svg id="&#x421;&#x43B;&#x43E;&#x439;_1" enable-background="new 0 0 16 16" viewBox="0 0 16 16" xmlns="http://www.w3.org/2000/svg"><g fill="rgb(0,0,0)"><path d="m8 .125c-4.3422852 0-7.875 3.5327148-7.875 7.875s3.5327148 7.875 7.875 7.875 7.875-3.5327148 7.875-7.875-3.5327148-7.875-7.875-7.875zm0 15c-3.9287109 0-7.125-3.1962891-7.125-7.125s3.1962891-7.125 7.125-7.125 7.125 3.1962891 7.125 7.125-3.1962891 7.125-7.125 7.125z"/><path d="m8 2.125c-3.2392578 0-5.875 2.6357422-5.875 5.875s2.6357422 5.875 5.875 5.875 5.875-2.6357422 5.875-5.875-2.6357422-5.875-5.875-5.875zm0 11c-2.8261719 0-5.125-2.2988281-5.125-5.125s2.2988281-5.125 5.125-5.125 5.125 2.2988281 5.125 5.125-2.2988281 5.125-5.125 5.125z"/><path d="m11.2080078 6.6708984-1.984375-.2885742-.887207-1.7983398c-.1269531-.2558594-.5458984-.2558594-.6728516 0l-.887207 1.7983398-1.984375.2885742c-.1416016.0205079-.2587891.1196289-.3027344.2553711-.0444336.1357422-.0073242.284668.0947266.3842773l1.4360352 1.3994141-.3393555 1.9765625c-.0239258.140625.0336914.2827148.1494141.3666992.1147461.0849609.2680664.0947266.3945313.0288086l1.7753905-.9331054 1.7753906.9331055c.0546875.0288085.1147461.0429687.1743164.0429687.0776367 0 .1552734-.0239258.2202148-.0717773.1157227-.0839844.1733398-.2260742.1494141-.3666992l-.3393554-1.9765626 1.4360352-1.3994141c.1020508-.0996094.1391602-.2485352.0947266-.3842773-.0439454-.1357422-.1611329-.2348632-.3027345-.2553711zm-1.8925781 1.6396485c-.0883789.0859375-.1289063.2104492-.1079102.3320312l.2441406 1.421875-1.2773437-.6713867c-.0546875-.0288086-.1142578-.0429687-.1743164-.0429687s-.1196289.0141601-.1743164.0429687l-1.2773438.6713867.2441406-1.421875c.0209961-.121582-.0195313-.2460938-.1079102-.3320313l-1.033203-1.0068359 1.4277344-.2075195c.1225586-.0175781.2280273-.0942383.2827148-.2050781l.6381836-1.293457.6381836 1.293457c.0546875.1108398.1601563.1875.2827148.2050781l1.4277344.2075195z"/></g></svg>