<svg id="Layer_1" height="512" viewBox="0 0 36 36" width="512" xmlns="http://www.w3.org/2000/svg" data-name="Layer 1"><g id="Award"><path d="m26.38 24.46a12.8 12.8 0 1 0 -16.75 0l-2.63 4.54a1.07 1.07 0 0 0 1 1.6l3.31-.14 1.53 2.93a1.07 1.07 0 0 0 .92.57 1.1 1.1 0 0 0 .95-.53l3.29-5.75 3.34 5.79a1.07 1.07 0 0 0 .92.53 1.09 1.09 0 0 0 .94-.57l1.53-2.93 3.3.14a1.07 1.07 0 0 0 .97-1.64zm-19-9.66a10.67 10.67 0 1 1 10.62 10.67 10.68 10.68 0 0 1 -10.67-10.67zm6.45 15.92-.95-1.81a1.06 1.06 0 0 0 -1-.57l-2 .08 1.56-2.7a12.7 12.7 0 0 0 4.35 1.66zm10.38-2.38a1.06 1.06 0 0 0 -1 .57l-.95 1.81-1.93-3.34a12.7 12.7 0 0 0 4.35-1.66l1.56 2.7z"/><path d="m13.65 16.21.15 3a1.07 1.07 0 0 0 1.34 1l2.86-.84 2.86.77a1.11 1.11 0 0 0 .91-.17 1.07 1.07 0 0 0 .44-.81l.15-3 1.64-2.42a1.07 1.07 0 0 0 -.51-1.58l-2.8-1.06-1.86-2.3a1.07 1.07 0 0 0 -1.66 0l-1.86 2.3-2.77 1.05a1.07 1.07 0 0 0 -.54 1.59zm2.69-3.21a1.07 1.07 0 0 0 .45-.33l1.21-1.5 1.21 1.5a1.07 1.07 0 0 0 .45.33l1.8.68-1.06 1.61a1.07 1.07 0 0 0 -.17.53l-.1 1.92-1.86-.5a1.08 1.08 0 0 0 -.56 0l-1.86.5-.1-1.92a1.07 1.07 0 0 0 -.17-.53l-1.05-1.61z"/></g></svg>