<svg id="Layer_51" height="512" viewBox="0 0 50 50" width="512" xmlns="http://www.w3.org/2000/svg" data-name="Layer 51"><path d="m43.52 37.7-5.52-6.44v-12.26a13.2 13.2 0 0 0 -11-12.82v-2.18a2 2 0 0 0 -4 0v2.18a13.2 13.2 0 0 0 -11 12.82v12.26l-5.52 6.44a2 2 0 0 0 1.52 3.3h8.24a9.14 9.14 0 0 0 8.76 7 9.14 9.14 0 0 0 8.76-7h8.24a2 2 0 0 0 1.52-3.3zm-18.52 6.3a5.14 5.14 0 0 1 -4.54-3h9.08a5.14 5.14 0 0 1 -4.54 3zm-12.65-7 3.17-3.7a2 2 0 0 0 .48-1.3v-13a9 9 0 0 1 18 0v13a2 2 0 0 0 .48 1.3l3.17 3.7z"/></svg>