<svg id="Capa_1" enable-background="new 0 0 512.083 512.083" height="512" viewBox="0 0 512.083 512.083" width="512" xmlns="http://www.w3.org/2000/svg"><g><path d="m452.167 61.141v-61.1h-452.167v467c0 24.813 20.187 45 45 45h422.125.042l-.001-.001c24.771-.022 44.917-20.181 44.917-44.957v-405.942zm-422.167 405.901v-437h392.167v437 .042c0 5.243.911 10.275 2.568 14.958h-379.735c-8.271 0-15-6.729-15-15zm452.083.042c0 8.248-6.71 14.958-14.958 14.958s-14.958-6.71-14.958-14.958v-12.792-363.151h29.917v375.943z"/><path d="m243.405 241.621h150.137v30h-150.137z"/><path d="m243.405 301.746h150.137v30h-150.137z"/><path d="m243.405 361.871h150.137v30h-150.137z"/><path d="m243.405 421.996h150.137v30h-150.137z"/><path d="m60.302 451.996h148.948v-90.125h-148.948zm30-60.125h88.948v30.125h-88.948z"/><path d="m58.583 241.621h150.454v30h-150.454z"/><path d="m58.583 181.496h150.454v30h-150.454z"/><path d="m58.583 121.371h150.454v30h-150.454z"/><path d="m134.776 61.247h74.262v30h-74.262z"/><path d="m58.583 301.746h150.454v30h-150.454z"/><path d="m388.044 186.439c0-18.649-7.579-35.209-21.341-46.628-2.945-2.444-6.155-4.618-9.572-6.529 4.974-7.382 7.882-16.267 7.882-25.819 0-25.542-20.78-46.322-46.322-46.322s-46.322 20.78-46.322 46.322c0 9.552 2.908 18.437 7.883 25.82-3.417 1.91-6.627 4.085-9.571 6.528-13.763 11.419-21.342 27.979-21.342 46.628v25.162h138.706v-25.162zm-69.353-95.298c9 0 16.322 7.322 16.322 16.322s-7.322 16.321-16.322 16.321-16.322-7.321-16.322-16.321 7.322-16.322 16.322-16.322zm-39.049 90.46c2.652-20.419 22.168-27.816 39.05-27.816 16.881 0 36.396 7.397 39.048 27.816z"/></g></svg>