<svg id="Layer_1" enable-background="new 0 0 512 512" viewBox="0 0 512 512" xmlns="http://www.w3.org/2000/svg"><path clip-rule="evenodd" d="m415.282 55.371c11.022 0 20.012 8.99 20.012 20.012v223.471c-2.746-1.181-5.543-2.242-8.384-3.18l-2.857-7.422c-.183-.474-.383-.937-.599-1.39v-195.652c0-13.237-10.763-24-24-24h-45.219v-11.839zm-50.555 345.141c-3.124-3.124-3.124-8.189 0-11.312 3.124-3.124 8.189-3.124 11.312 0l8.786 8.786 28.753-26.094c3.262-2.968 8.313-2.731 11.281.531 2.969 3.262 2.731 8.313-.531 11.281l-34.08 30.928c-3.096 3.176-8.23 3.171-11.356.045zm129.351-21.557-13.407-5.16c-.935-.36-1.579-1.083-1.828-2.053-2.032-7.911-5.177-15.492-9.337-22.522-.51-.862-.566-1.83-.16-2.745l5.835-13.139c.514-1.157.275-2.444-.62-3.339l-16.481-16.481c-.895-.895-2.182-1.134-3.339-.62l-13.144 5.838c-.915.406-1.883.35-2.745-.16-7.028-4.158-14.606-7.303-22.515-9.335-.97-.249-1.694-.893-2.053-1.828l-5.162-13.412c-.455-1.181-1.534-1.922-2.799-1.922h-23.307c-1.266 0-2.345.741-2.8 1.922l-5.163 13.412c-.36.934-1.083 1.579-2.053 1.828-7.909 2.031-15.487 5.177-22.515 9.335-.862.51-1.83.566-2.745.16l-13.144-5.838c-1.157-.514-2.444-.275-3.339.62l-16.481 16.482c-.895.895-1.135 2.182-.62 3.339l5.837 13.142c.406.915.35 1.883-.16 2.745-4.158 7.029-7.303 14.608-9.335 22.517-.249.97-.893 1.694-1.828 2.053l-13.41 5.162c-1.181.455-1.922 1.534-1.922 2.799v23.308c0 1.266.741 2.345 1.922 2.8l13.407 5.16c.935.36 1.579 1.083 1.828 2.053 2.032 7.911 5.177 15.492 9.336 22.522.51.862.566 1.83.16 2.745l-5.835 13.139c-.514 1.157-.275 2.444.62 3.339l16.481 16.481c.895.895 2.182 1.134 3.339.62l13.144-5.838c.915-.406 1.883-.35 2.745.16 7.028 4.158 14.606 7.303 22.515 9.335.97.249 1.694.893 2.053 1.828l5.162 13.411c.455 1.181 1.534 1.922 2.8 1.922h23.308c1.266 0 2.345-.741 2.8-1.922l5.16-13.407c.36-.935 1.083-1.579 2.053-1.828 7.911-2.032 15.492-5.177 22.522-9.337.862-.51 1.83-.566 2.745-.16l13.139 5.836c1.157.514 2.444.275 3.339-.62l16.481-16.482c.895-.895 1.134-2.182.621-3.339l-5.838-13.144c-.406-.915-.35-1.883.16-2.745 4.158-7.028 7.303-14.606 9.335-22.515.249-.97.893-1.694 1.828-2.053l13.411-5.162c1.181-.455 1.922-1.534 1.922-2.799v-23.308c-.001-1.266-.742-2.345-1.923-2.8zm-99.41 70.384c-30.889 0-55.93-25.041-55.93-55.93s25.041-55.93 55.93-55.93 55.93 25.041 55.93 55.93-25.04 55.93-55.93 55.93zm-378.668-276.519v-12.198c0-11.035 9-20.035 20.035-20.035h8.014c11.035 0 20.035 9 20.035 20.035v12.198zm22.31 230.002-22.31-38.643h48.084l-22.31 38.643c-.768 1.329-2.696 1.329-3.464 0zm-22.31-54.643v-159.36h48.084v159.36zm150.126-84.334c-3.124-3.124-3.124-8.189 0-11.312 3.124-3.124 8.189-3.124 11.312 0l4.761 4.761 10.173-12.576c2.779-3.435 7.815-3.966 11.25-1.187 3.434 2.779 3.966 7.815 1.187 11.25l-15.725 19.44c-2.972 3.723-8.529 4.054-11.912.671zm0-100.035c-3.124-3.124-3.124-8.189 0-11.312 3.124-3.124 8.189-3.124 11.312 0l4.761 4.761 10.173-12.576c2.779-3.434 7.815-3.966 11.25-1.187 3.434 2.779 3.966 7.815 1.187 11.25l-15.725 19.44c-2.972 3.723-8.529 4.054-11.912.671zm167.11-120.535h-35.25c-2.158 0-3.995-1.299-4.713-3.334-4.669-13.214-17.269-22.681-32.082-22.681-14.812 0-27.412 9.468-32.082 22.681-.719 2.035-2.555 3.334-4.714 3.334h-35.25c-2.754 0-5 2.246-5 5v42.031c0 2.754 2.246 5 5 5h144.092c2.754 0 5-2.246 5-5v-42.032c-.001-2.753-2.247-4.999-5.001-4.999zm-72.046 10.873c-4.97 0-8.999-4.029-8.999-8.999s4.029-8.999 8.999-8.999 8.999 4.029 8.999 8.999c.001 4.97-4.028 8.999-8.999 8.999zm138.265 29.062h-45.219v7.096c0 11.585-9.415 21-21 21h-144.092c-11.585 0-21-9.415-21-21v-7.096h-45.218c-4.406 0-8 3.594-8 8v336.565c0 4.406 3.594 8 8 8h177.949c-1.493-3.302-2.811-6.682-3.947-10.125l-7.417-2.855c-7.357-2.832-12.175-9.848-12.175-17.732v-19.409h-20.225c-4.418 0-8-3.582-8-8s3.582-8 8-8h24.566c4.032-4.881 9.599-6.31 15.255-8.487 1.329-4.027 2.907-7.968 4.723-11.799h-44.543c-4.401 0-7.969-3.568-7.969-7.969s3.568-7.969 7.969-7.969h40.835c-.367-5.38 1.563-10.796 5.515-14.747l16.481-16.482c5.547-5.547 13.978-7.113 21.147-3.929l7.275 3.231c4.536-2.289 9.237-4.238 14.062-5.83l2.857-7.423c.354-.918.773-1.797 1.25-2.632h-109.422c-4.418 0-8-3.582-8-8s3.582-8 8-8h111.856c4.232 0 7.696 3.286 7.98 7.445 1.918-.644 3.962-.988 6.067-.988h23.307c.38 0 .757.011 1.133.034v-184.899c0-4.406-3.594-8-8-8zm-182.496 301.512c0 3.618-2.96 6.578-6.578 6.578h-50.39c-3.618 0-6.578-2.96-6.578-6.578v-50.39c0-3.618 2.96-6.578 6.578-6.578h50.39c3.618 0 6.578 2.96 6.578 6.578zm0-100.035c0 3.618-2.96 6.578-6.578 6.578h-50.39c-3.618 0-6.578-2.96-6.578-6.578v-50.39c0-3.618 2.96-6.578 6.578-6.578h50.39c3.618 0 6.578 2.96 6.578 6.578zm0-100.034c0 3.618-2.96 6.578-6.578 6.578h-50.39c-3.618 0-6.578-2.96-6.578-6.578v-50.39c0-3.618 2.96-6.578 6.578-6.578h50.39c3.618 0 6.578 2.96 6.578 6.578zm152.009 64.712h-111.856c-4.418 0-8-3.582-8-8s3.582-8 8-8h111.856c4.418 0 8 3.582 8 8s-3.582 8-8 8zm0-63.781h-111.856c-4.418 0-8-3.582-8-8s3.582-8 8-8h111.856c4.418 0 8 3.582 8 8s-3.582 8-8 8zm0-36.253h-111.856c-4.418 0-8-3.582-8-8s3.582-8 8-8h111.856c4.418 0 8 3.582 8 8s-3.582 8-8 8zm-70.842 302.443c-.629 4.057.077 8.22 1.995 11.839h-193.022c-11.022 0-20.012-8.99-20.012-20.012v-368.219c0-11.022 8.99-20.012 20.012-20.012h61.046v11.84h-45.218c-13.237 0-24 10.763-24 24v336.565c0 13.237 10.763 24 24 24h175.199z" fill-rule="evenodd"/></svg>