<svg id="Capa_1" enable-background="new 0 0 512 512" height="512" viewBox="0 0 512 512" width="512" xmlns="http://www.w3.org/2000/svg"><g><path d="m497 391h-136v-75c0-8.284-6.716-15-15-15h-180c-8.284 0-15 6.716-15 15v45h-136c-8.284 0-15 6.716-15 15v121c0 8.284 6.716 15 15 15h482c8.284 0 15-6.716 15-15v-91c0-8.284-6.716-15-15-15zm-256-60h30v76.187c-4.794-1.469-9.841-2.242-15-2.242s-10.206.773-15 2.242zm-211 60h121v91h-121zm151-60h30v105c0 6.61 4.327 12.441 10.653 14.356 6.324 1.915 13.161-.536 16.828-6.036 3.972-5.958 10.357-9.376 17.519-9.376 7.161 0 13.547 3.417 17.519 9.376 3.661 5.49 10.489 7.955 16.828 6.036 6.326-1.915 10.653-7.746 10.653-14.356v-105h30v151h-150zm301 151h-121v-61h121z"/><path d="m179.018 175.012-12.522 75.346c-.932 5.605 1.384 11.255 5.98 14.595 4.597 3.34 10.686 3.795 15.729 1.177l67.795-35.2 67.795 35.2c5.063 2.629 11.15 2.149 15.729-1.177 4.597-3.34 6.912-8.99 5.98-14.595l-12.522-75.346 54.409-53.598c4.047-3.987 5.495-9.918 3.739-15.322-1.756-5.403-6.413-9.351-12.031-10.197l-75.163-11.323-34.269-75.754c-2.429-5.369-7.775-8.818-13.667-8.818s-11.238 3.449-13.667 8.818l-34.269 75.754-75.163 11.323c-5.618.846-10.275 4.794-12.031 10.197s-.308 11.334 3.739 15.322zm41.585-61.991c5.031-.758 9.335-4.014 11.432-8.65l23.965-52.977 23.965 52.977c2.097 4.636 6.401 7.892 11.432 8.65l53.572 8.071-38.588 38.012c-3.478 3.426-5.07 8.33-4.27 13.145l8.88 53.43-48.079-24.963c-4.333-2.25-9.491-2.25-13.824 0l-48.079 24.963 8.88-53.43c.8-4.816-.792-9.719-4.27-13.145l-38.588-38.012z"/></g></svg>