<svg id="Layer_2" viewBox="0 0 512 512" xmlns="http://www.w3.org/2000/svg" data-name="Layer 2"><g id="Icon"><path id="_47" d="m256 0c-141.39 0-256 114.61-256 256s114.61 256 256 256c141.38 0 256-114.61 256-256s-114.61-256-256-256zm173.95 429.95c-46.46 46.46-108.24 72.05-173.95 72.05s-127.49-25.59-173.95-72.05-72.05-108.24-72.05-173.95 25.59-127.49 72.05-173.95 108.24-72.05 173.95-72.05 127.49 25.59 173.95 72.05 72.05 108.24 72.05 173.95-25.59 127.49-72.05 173.95zm-48.29-281.85c-10.53-16.43-25.6-29.4-44.81-38.56-18.86-8.99-41.24-13.54-66.53-13.54h-145.88c-5.52 0-10 4.48-10 10v42.45c0 4.72 3.31 8.8 7.93 9.78l23.19 4.91v185.92l-23.19 4.91c-4.62.98-7.93 5.06-7.93 9.78v42.24c0 5.52 4.48 10 10 10h134.55c5.52 0 10-4.48 10-10v-42.24c0-4.72-3.31-8.8-7.93-9.78l-23.19-4.91v-34.65h32.45c25.27 0 47.63-4.48 66.47-13.31 19.23-9.01 34.32-21.88 44.86-38.26 10.56-16.41 15.91-35.7 15.91-57.33s-5.35-40.95-15.9-57.42zm-8.42 109.34c-9.55 14.84-23.11 26.37-40.69 34.62-17.58 8.24-38.32 12.36-62.23 12.36h-42.45v52.75l31.11 6.59v42.24h-134.54v-42.24l31.11-6.59v-202.13l-31.11-6.59v-42.45h145.88c23.9 0 44.64 4.19 62.23 12.57 17.58 8.38 31.15 20.02 40.69 34.93 9.55 14.91 14.32 32.24 14.32 52.03s-4.77 37.09-14.32 51.92zm-102.92-96.22h-42.45v87.77h42.45c14.7 0 25.86-4.02 33.48-12.05 7.62-8.04 11.44-18.37 11.44-31.01s-3.81-23.76-11.44-32.14c-7.62-8.38-18.79-12.57-33.48-12.57zm26.23 68.84c-5.7 6.01-14.28 8.94-26.23 8.94h-32.45v-67.77h32.45c11.86 0 20.39 3.04 26.08 9.3 5.94 6.53 8.83 14.85 8.83 25.41s-2.84 17.96-8.69 24.13z" data-name="47"/></g></svg>