<svg id="Capa_1" enable-background="new 0 0 512.094 512.094" height="512" viewBox="0 0 512.094 512.094" width="512" xmlns="http://www.w3.org/2000/svg"><g><g id="Page-1_22_"><g id="_x30_23---Reactions-To-Post" transform="translate(-1)"><path id="Shape_47_" d="m245.816 264.278h.171c.848.131 1.703.217 2.56.256h34.133c2.331-.032 4.645-.388 6.878-1.058.273-.094.546-.137.802-.247 4.516-1.434 8.545-4.092 11.639-7.68.119 0 .247 0 .367-.077 6.248 5.803 14.453 9.038 22.98 9.062h102.4c14.138 0 25.6-11.462 25.6-25.6-.025-4.41-1.202-8.737-3.413-12.553 11.624-7.186 15.408-22.323 8.533-34.133 6.4-3.985 10.694-10.612 11.716-18.082 1.023-7.47-1.332-15.007-6.425-20.565 6.818-7.475 8.57-18.274 4.465-27.521-4.106-9.247-13.292-15.19-23.409-15.145h-59.733v-15.925c.165-11.796-2.507-23.458-7.791-34.005-8.431-16.41-21.231-23.987-36.011-21.333-9.287 1.728-16 9.865-15.932 19.311.005 22.192-3.573 44.238-10.598 65.289-2.642 7.844-7.833 14.579-14.746 19.132-4.697-4.398-10.887-6.853-17.323-6.869h-34.133c-14.138 0-25.6 11.462-25.6 25.6v76.8c.038 12.961 9.778 23.838 22.656 25.301.078-.001.137.042.214.042zm62.464-105.703c10.685-6.691 18.7-16.901 22.665-28.868 7.608-22.803 11.481-46.686 11.469-70.724-.022-1.173.772-2.204 1.911-2.483 2.867-.503 10.479-1.911 17.783 12.305 4.008 8.147 6.032 17.127 5.905 26.206v24.457c0 4.713 3.821 8.533 8.533 8.533h68.267c4.713 0 8.533 3.821 8.533 8.533 0 4.713-3.82 8.533-8.533 8.533h-25.6c-4.713 0-8.533 3.821-8.533 8.533 0 4.713 3.82 8.533 8.533 8.533h25.6c4.713 0 8.533 3.821 8.533 8.533 0 4.713-3.82 8.533-8.533 8.533h-25.6c-4.713 0-8.533 3.821-8.533 8.533s3.82 8.533 8.533 8.533h17.067c4.713 0 8.533 3.821 8.533 8.533s-3.821 8.533-8.533 8.533h-17.067c-4.713 0-8.533 3.821-8.533 8.533s3.82 8.533 8.533 8.533h8.533c4.713 0 8.533 3.82 8.533 8.533s-3.82 8.533-8.533 8.533h-102.4c-9.426 0-17.067-7.641-17.067-17.067v-71.821zm-68.266 3.559c0-4.713 3.821-8.533 8.533-8.533h34.133c4.713 0 8.533 3.82 8.533 8.533v76.8c0 4.713-3.821 8.533-8.533 8.533h-34.133c-4.713 0-8.533-3.821-8.533-8.533z"/><path id="Shape_46_" d="m342.414 0c-88.515.132-162.266 67.858-169.924 156.041-2.517-.461-4.992-.853-7.381-1.169-64.654-8.551-127.067 27.095-152.552 87.127s-7.777 129.691 43.283 170.263c51.06 40.573 122.919 42.085 175.64 3.695 4.242 11.894 10.011 23.187 17.161 33.596l-32.819 49.178c-1.75 2.622-1.911 5.996-.42 8.773s4.392 4.506 7.545 4.496c.573.005 1.146-.052 1.707-.171l77.653-15.531c61.579 31.356 136.729 14.894 179.56-39.333 42.831-54.228 41.438-131.147-3.33-183.788 39.072-51.597 45.529-120.879 16.663-178.807s-88.065-94.493-152.786-94.37zm0 17.067c84.831 0 153.6 68.769 153.6 153.6s-68.769 153.6-153.6 153.6-153.6-68.769-153.6-153.6c.098-84.79 68.81-153.501 153.6-153.6zm-113.494 280.678c-8.397 27.196-37.461 54.204-82.773 76.749-74.129-36.873-85.333-73.916-85.333-92.894 0-24.329 16.512-42.667 38.4-42.667 15.573-.071 30.302 7.068 39.893 19.337 1.593 2.32 4.226 3.705 7.04 3.703 2.794 0 5.411-1.367 7.006-3.661 8.227-10.338 20.171-17.048 33.28-18.697 9.887 22.167 24.369 41.981 42.487 58.13zm-82.773 128.922c-47.793.079-91.649-26.474-113.731-68.859s-18.711-93.543 8.742-132.665 74.414-59.691 121.783-53.341c2.867.35 5.854.853 8.943 1.519.235 16.955 3.011 33.779 8.235 49.911-12.754 2.438-24.543 8.479-33.971 17.408-12.62-12.104-29.447-18.834-46.933-18.773-15.326.423-29.837 6.991-40.269 18.226s-15.911 26.192-15.199 41.507c0 23.287 12.8 68.557 98.679 110.08 2.347 1.136 5.085 1.136 7.433 0 29.124-12.732 55.177-31.565 76.399-55.228-4.452 20.369-4.414 41.463.111 61.815-22.728 18.325-51.028 28.343-80.222 28.4zm349.867-59.733c.009 44.996-23.609 86.691-62.205 109.82s-86.502 24.293-126.177 3.067c-1.748-.941-3.77-1.243-5.717-.853l-60.433 12.092 24.661-36.958c2.008-3.011 1.899-6.961-.273-9.856-28.14-37.292-33.757-86.942-14.66-129.579 69.378 44.31 160.557 32.407 216.235-28.228 18.498 22.746 28.589 51.175 28.569 80.495z"/><g clip-rule="evenodd" fill-rule="evenodd"><path id="Path_35_" d="m368.014 426.667h-68.267c-4.713 0-8.533 3.821-8.533 8.533 0 4.713 3.82 8.533 8.533 8.533h68.267c4.713 0 8.533-3.821 8.533-8.533s-3.821-8.533-8.533-8.533z"/><path id="Path_34_" d="m436.28 392.534h-136.533c-4.713 0-8.533 3.821-8.533 8.533 0 4.713 3.82 8.533 8.533 8.533h136.533c4.713 0 8.533-3.821 8.533-8.533.001-4.713-3.82-8.533-8.533-8.533z"/><path id="Path_33_" d="m436.28 358.4h-136.533c-4.713 0-8.533 3.82-8.533 8.533s3.82 8.533 8.533 8.533h136.533c4.713 0 8.533-3.821 8.533-8.533s-3.82-8.533-8.533-8.533z"/></g></g></g></g></svg>