<svg id="Layer_1" enable-background="new 0 0 512 512" height="512" viewBox="0 0 512 512" width="512" xmlns="http://www.w3.org/2000/svg"><path d="m139.3 444.4h79.6v16.8h-79.6zm.4-354.2h240.3c2.6 0 4.7 2.1 4.7 4.7v191.6h-162.3l-19.4-22.4c-5.3-6.1-12.9-9.6-21.1-9.6l-47 .2v-159.7c0-2.6 2.2-4.8 4.8-4.8zm95.8 53.7h110.7c11.2-.2 11.1-16.8 0-17h-110.7c-11.2.3-11.1 16.8 0 17zm-62.1 47.3h172.8c11.2-.2 11.1-16.8 0-17h-172.8c-11.2.3-11.1 16.8 0 17zm0 47.3h172.8c11.2-.2 11.1-16.8 0-17h-172.8c-11.2.2-11.1 16.8 0 17zm-53.2 16.3v-159.8c0-10.7 8.7-19.4 19.4-19.4h42.6l10.6-42-138.8 43.2c-2.4.8-3.8 3.5-3.1 5.9l53.7 172.1zm340.9-186.8-58.4 233.2h6.2c7.2 0 13 5.8 13 13v183.8c0 7.1-5.8 12.9-13 12.9h-305.5c-7.2 0-13-5.8-13-12.9v-215.5c0-7.1 5.8-12.9 12.9-12.9 23.1-.1 55.4-.1 78.6-.3 3.8 0 7.4 1.6 9.9 4.5l20 23c2.5 2.9 6 4.5 9.8 4.5h177.8v-206.3c0-10.7-8.7-19.4-19.4-19.4h-182.6c3.8-15 13.8-54.8 17.4-69.2 1-3.7 4.7-6 8.4-5.1l40.5 10.2c15.1 3.8 172.7 43.3 192.3 48.2 3.8.8 6 4.6 5.1 8.3zm-225.2 374.9c0-8.5-7-15.5-15.5-15.5h-82.5c-8.5 0-15.5 7-15.5 15.5v19.7c0 8.5 7 15.5 15.5 15.5h82.5c8.5 0 15.5-7 15.5-15.5z"/></svg>