<svg id="Capa_1" enable-background="new 0 0 512 512" height="512" viewBox="0 0 512 512" width="512" xmlns="http://www.w3.org/2000/svg"><g><path d="m491.395 204.266c11.36 0 20.6-9.24 20.6-20.6v-77.799c0-11.36-9.24-20.6-20.6-20.6h-.39c1.86-4.97 2.87-10.35 2.87-15.97 0-38.691-44.857-60.047-74.909-35.72l-58.469 47.389-58.469-47.389c-13.9-11.26-32.57-13.48-48.73-5.78-22.323 10.657-31.352 35.98-23.31 57.469-12.377 0-20.99 9.724-20.99 20.6v77.799c0 11.36 9.24 20.6 20.6 20.6h15.94v110.309c-42.835-27.292-1.971-1.257-29.08-18.52-29.29-18.67-55.559-31.91-103.029-18.74h-88.419c-13.79 0-25.01 11.23-25.01 25.02v124.709c0 13.79 11.22 25.01 25.01 25.01h105.259l10.78 5.98c36.55 20.27 75.939 30.72 114.309 30.72 29.14 0 37.862-3.401 141.309-26.33.201-.042 75.021-19.628 75.219-19.68 13.31-3.03 24.68-11.04 32.03-22.57 18.264-28.661 4.224-67.284-28.46-77.089v-138.818zm-53.539-147.378c10.464-8.478 26.02-1.067 26.02 12.41 0 8.81-7.16 15.97-15.97 15.97h-45.069zm-30.91 147.378h38.51v137.519l-38.51 2.55zm-62.899-88.999h32.9v231.058l-32.9 2.18c0-11.359 0-222.21 0-233.238zm-77.84-60.39c5.739-2.73 12.055-1.939 16.93 2.01l35.02 28.38h-45.069c-16.922 0-22.183-23.074-6.881-30.39zm-27.209 119.389v-58.999h75.049v58.999c-7.317 0-67.507 0-75.049 0zm75.049 30v146.229l-10.98.73s-27.441-17.483-27.53-17.54v-129.419zm151.039 209.258c-.542.12-74.653 19.529-75.189 19.67l-97.089 21.52c-44.18 9.8-92.909 1.66-137.209-22.92l-14.17-7.86c-2.23-1.23-4.73-1.88-7.28-1.88h-104.149v-114.739h85.509c1.42 0 2.82-.2 4.18-.59 37.73-10.94 55.229-1.57 80.649 14.63 18.632 11.853 81.199 51.73 81.199 51.73 6.66 4.59 6.02 11.57 5.66 13.64-1.831 10.221-12.986 14.133-20.8 9.25-26.125-16.356-16.384-10.259-42.7-26.73-7.02-4.4-16.27-2.27-20.67 4.75s-2.27 16.28 4.75 20.68c5.265 3.295 37.511 23.479 42.72 26.74 30.201 18.853 69.899-4.217 66.779-41.069 62.154-4.11 18.164-1.216 128.179-8.5 12.93-.86 21.711-2.956 30 5.12 12.203 11.826 6.506 32.817-10.369 36.558zm-58.14-239.258v-58.999h75.049v58.999c-7.543 0-67.733 0-75.049 0z"/></g></svg>