<svg id="Layer_1" enable-background="new 0 0 511.719 511.719" height="512" viewBox="0 0 511.719 511.719" width="512" xmlns="http://www.w3.org/2000/svg"><g><path d="m331.636 482.052c-8.137 0-14.734 6.597-14.734 14.734s6.597 14.734 14.734 14.734 14.734-6.597 14.734-14.734-6.597-14.734-14.734-14.734z"/><circle cx="332.001" cy="365.044" r="14.734"/><path d="m253.725 416.181c-8.137 0-14.734 6.597-14.734 14.734s6.597 14.734 14.734 14.734 14.734-6.597 14.734-14.734-6.597-14.734-14.734-14.734z"/><path d="m119.797 118.703-6.204 36.174c-.965 5.627 1.348 11.314 5.967 14.67 4.62 3.357 10.743 3.798 15.797 1.143l32.486-17.079 32.486 17.079c2.195 1.153 4.591 1.723 6.979 1.723 3.11 0 6.205-.966 8.818-2.865 4.619-3.355 6.933-9.043 5.967-14.671l-6.205-36.173 26.282-25.618c4.088-3.985 5.56-9.946 3.796-15.376-1.765-5.431-6.458-9.389-12.109-10.209l-36.32-5.278-16.243-32.912c-2.527-5.12-7.742-8.361-13.451-8.361s-10.924 3.241-13.451 8.361l-16.243 32.912-36.321 5.277c-5.65.82-10.344 4.778-12.109 10.209-1.764 5.43-.292 11.391 3.796 15.376zm30.47-27.928c4.885-.71 9.109-3.778 11.294-8.205l6.282-12.729 6.282 12.729c2.185 4.427 6.409 7.495 11.294 8.205l14.047 2.042-10.165 9.907c-3.535 3.446-5.148 8.411-4.314 13.277l2.4 13.99-12.564-6.605c-4.37-2.297-9.59-2.297-13.96 0l-12.564 6.605 2.399-13.991c.834-4.865-.779-9.83-4.314-13.276l-10.165-9.907z"/><path d="m30.275 281.033h18.345v17.723c0 8.284 6.716 15 15 15s15-6.716 15-15v-17.723h16.818c8.284 0 15-6.716 15-15s-6.716-15-15-15h-16.818v-17.441c0-8.284-6.716-15-15-15s-15 6.716-15 15v17.441h-18.345c-8.284 0-15 6.716-15 15s6.716 15 15 15z"/><path d="m473.847 286.513h-16.818v-17.44c0-8.284-6.716-15-15-15s-15 6.716-15 15v17.44h-18.346c-8.284 0-15 6.716-15 15s6.716 15 15 15h18.346v17.723c0 8.284 6.716 15 15 15s15-6.716 15-15v-17.723h16.818c8.284 0 15-6.716 15-15s-6.716-15-15-15z"/><path d="m507.325 55.217-50.824-50.824c-5.857-5.857-15.355-5.857-21.213 0l-90.773 90.773c-.401.326-.791.674-1.164 1.048-.374.374-.722.763-1.049 1.165l-239.37 239.37c-.402.326-.792.675-1.166 1.049s-.723.764-1.05 1.167l-96.323 96.323c-5.858 5.857-5.858 15.355 0 21.213l50.824 50.824c2.813 2.813 6.628 4.394 10.606 4.394s7.793-1.58 10.606-4.394l430.896-430.895c2.813-2.813 4.394-6.628 4.394-10.606s-1.581-7.794-4.394-10.607zm-344.07 322.857-29.611-29.611 220.371-220.372 29.611 29.611zm-97.431 97.432-29.61-29.611 76.218-76.218 29.611 29.611zm339.015-339.016-29.611-29.611 70.666-70.667 29.611 29.611z"/></g></svg>